<?xml version="1.0" standalone="no"?>
<!DOCTYPE svg PUBLIC "-//W3C//DTD SVG 20010904//EN"
 "http://www.w3.org/TR/2001/REC-SVG-20010904/DTD/svg10.dtd">
<svg version="1.0" xmlns="http://www.w3.org/2000/svg"
 width="400.000000pt" height="400.000000pt" viewBox="0 0 400.000000 400.000000"
 preserveAspectRatio="xMidYMid meet">

<g transform="translate(0.000000,400.000000) scale(0.100000,-0.100000)"
fill="#000000" stroke="none">
<path d="M0 3380 l0 -621 412 1 c307 1 414 -2 416 -10 3 -8 -3 -10 -17 -5 -15
5 -21 2 -21 -9 0 -14 -43 -16 -395 -16 -328 0 -395 -2 -395 -14 0 -20 85 -24
468 -26 328 -1 332 -1 332 20 0 15 6 20 29 20 25 0 31 -6 41 -35 8 -25 8 -40
0 -55 -6 -12 -7 -20 -1 -20 5 0 12 -12 14 -27 3 -16 4 22 3 84 0 61 2 110 5
108 3 -2 11 12 18 30 12 35 8 60 -9 50 -5 -3 -12 0 -16 6 -4 8 -3 9 4 5 7 -4
12 -2 12 5 0 8 3 9 13 0 8 -6 18 -7 22 -3 5 4 4 0 0 -8 -5 -8 6 -3 24 13 18
15 44 27 57 27 14 0 22 4 19 10 -4 7 3 7 20 0 15 -6 41 -10 58 -10 18 0 56
-11 85 -25 29 -13 50 -19 46 -13 -4 7 -3 8 4 4 7 -4 18 -4 24 0 25 15 46 11
43 -8 -2 -10 1 -18 6 -18 6 0 7 -5 3 -11 -4 -8 -9 -7 -15 2 -6 10 -9 10 -9 2
0 -16 37 -36 50 -28 6 4 9 2 8 -3 -3 -9 144 -142 156 -142 6 0 -1 36 -8 49 -4
5 5 4 18 -2 13 -7 22 -15 20 -19 -3 -5 2 -8 10 -8 19 0 20 9 2 33 -15 19 -68
17 -74 -3 -2 -6 -11 -2 -19 9 -8 12 -18 19 -22 16 -5 -2 -16 4 -26 15 -15 17
-9 30 7 15 3 -3 260 -5 571 -5 562 0 565 0 560 -20 -8 -28 1 -25 60 23 29 23
69 51 89 62 24 12 34 23 28 30 -6 7 -2 11 10 11 10 0 17 -3 14 -7 -2 -4 22 4
54 17 31 13 69 24 84 24 15 0 38 4 53 10 19 7 24 7 19 -1 -5 -8 1 -10 18 -7
20 4 34 -4 67 -38 23 -23 44 -57 48 -74 3 -17 9 -27 12 -22 3 6 4 -40 3 -101
-4 -116 3 -143 11 -47 2 31 9 66 16 78 13 24 41 30 41 8 0 -21 143 -27 507
-24 290 3 313 4 313 21 0 16 -25 17 -395 17 -282 0 -395 3 -395 11 0 7 -10 9
-25 5 -18 -5 -25 -2 -25 9 0 8 6 15 13 15 6 0 195 0 420 0 l407 -1 0 621 0
620 -2000 0 -2000 0 0 -620z m1197 -436 c-3 -3 -12 -4 -19 -1 -8 3 -5 6 6 6
11 1 17 -2 13 -5z m1693 -14 c-8 -5 -22 -9 -30 -9 -10 0 -8 3 5 9 27 12 43 12
25 0z m-192 -59 c11 -6 10 -10 -4 -15 -9 -3 -19 -4 -22 -1 -3 3 1 5 9 5 11 0
11 2 -1 10 -8 5 -10 10 -5 10 6 0 16 -4 23 -9z m384 0 c7 11 11 11 15 1 2 -6
9 -10 14 -7 5 4 6 -1 2 -10 -4 -11 -8 -13 -13 -5 -4 6 -13 10 -20 8 -7 -2 -14
3 -15 10 -2 8 -1 8 2 1 4 -8 8 -7 15 2z m-1737 -48 c-18 -17 -18 -17 -6 0 11
14 11 20 0 35 -12 16 -12 16 6 0 19 -18 19 -18 0 -35z m1312 32 c0 -8 -4 -15
-9 -15 -10 0 -11 14 -1 23 9 10 10 9 10 -8z m-1790 -38 c-7 -21 -32 -13 -35
11 -3 21 -1 22 18 12 12 -6 19 -17 17 -23z m2295 3 c-2 -16 -10 -30 -17 -30
-21 0 -1 55 21 60 0 0 -1 -13 -4 -30z m-2259 5 c-3 -9 -8 -14 -10 -11 -3 3 -2
9 2 15 9 16 15 13 8 -4z m1721 -42 c-37 -31 -61 -43 -50 -24 4 5 0 11 -6 14
-10 4 -10 7 0 18 11 12 13 12 10 0 -2 -7 3 -16 10 -18 7 -3 11 1 10 9 -2 7 3
12 11 10 18 -4 42 18 34 31 -4 6 -1 7 7 2 10 -6 3 -17 -26 -42z m-1210 3 c-10
-8 -24 -11 -32 -8 -17 6 -1 17 29 19 20 2 20 1 3 -11z m26 -16 c0 -5 -2 -10
-4 -10 -3 0 -8 5 -11 10 -3 6 -1 10 4 10 6 0 11 -4 11 -10z m55 -70 c-3 -5 -1
-10 6 -10 7 0 10 -3 6 -6 -9 -9 -28 6 -22 17 4 5 8 9 11 9 3 0 2 -4 -1 -10z"/>
<path d="M1270 2856 c-15 -19 11 -28 27 -11 9 10 9 14 -2 19 -7 2 -18 -1 -25
-8z"/>
<path d="M2457 2714 c6 -16 15 -18 29 -5 5 6 14 4 23 -6 11 -12 10 -14 -4 -11
-11 2 -19 -4 -20 -14 -3 -16 -1 -16 20 -2 15 10 22 21 18 31 -5 12 -3 14 8 8
8 -4 11 -5 7 0 -4 4 -26 9 -47 11 -32 2 -39 0 -34 -12z"/>
<path d="M1599 2699 c21 -19 33 -21 184 -19 466 6 606 12 611 26 5 12 -57 14
-406 14 l-411 -1 22 -20z"/>
<path d="M2430 2686 c0 -9 5 -16 10 -16 6 0 10 4 10 9 0 6 -4 13 -10 16 -5 3
-10 -1 -10 -9z"/>
<path d="M2410 2670 c-1 -3 -3 -27 -5 -53 l-3 -49 29 28 c16 15 29 33 29 38 0
6 -5 4 -10 -4 -7 -11 -10 -11 -10 -2 0 7 -4 11 -9 7 -5 -3 -12 5 -14 17 -2 13
-5 21 -7 18z m25 -58 c-3 -3 -11 0 -18 7 -9 10 -8 11 6 5 10 -3 15 -9 12 -12z"/>
<path d="M1580 2644 c0 -8 -4 -12 -10 -9 -5 3 -10 0 -10 -7 0 -9 -3 -9 -10 2
-5 8 -10 10 -10 4 0 -5 14 -23 32 -40 18 -16 27 -22 20 -13 -6 9 -9 18 -6 21
10 11 14 58 4 58 -5 0 -10 -7 -10 -16z m5 -24 c-3 -5 -12 -10 -18 -10 -7 0 -6
4 3 10 19 12 23 12 15 0z"/>
<path d="M1629 2543 c-13 -16 -12 -17 4 -4 9 7 17 15 17 17 0 8 -8 3 -21 -13z"/>
<path d="M2335 2550 c-3 -5 -1 -11 5 -15 5 -3 10 -11 10 -16 0 -6 -4 -7 -10
-4 -5 3 -10 1 -10 -4 0 -26 42 5 46 33 2 14 -33 19 -41 6z m30 -10 c3 -5 2
-10 -4 -10 -5 0 -13 5 -16 10 -3 6 -2 10 4 10 5 0 13 -4 16 -10z"/>
<path d="M1656 2542 c-3 -5 1 -9 9 -9 8 0 12 4 9 9 -3 4 -7 8 -9 8 -2 0 -6 -4
-9 -8z"/>
<path d="M1647 2509 c7 -7 15 -10 18 -7 3 3 -2 9 -12 12 -14 6 -15 5 -6 -5z"/>
<path d="M886 2475 c8 -37 14 -45 14 -19 0 10 -5 26 -10 34 -8 11 -9 7 -4 -15z"/>
<path d="M3106 2485 c-3 -9 -6 -24 -5 -33 0 -9 5 -4 10 12 9 32 6 48 -5 21z"/>
<path d="M1680 2475 c0 -1 11 -15 24 -33 22 -30 24 -31 38 -14 27 30 19 48
-24 48 -21 0 -38 0 -38 -1z m67 -22 c2 -6 -1 -14 -7 -18 -13 -8 -42 13 -35 25
7 11 38 6 42 -7z"/>
<path d="M2243 2460 c0 -8 6 -23 15 -32 14 -17 16 -16 38 14 13 18 24 32 24
33 0 1 -17 1 -38 1 -28 0 -39 -5 -39 -16z m57 1 c0 -18 -31 -34 -42 -23 -5 5
-8 14 -5 19 7 11 47 14 47 4z"/>
<path d="M881 2414 c0 -11 3 -14 6 -6 3 7 2 16 -1 19 -3 4 -6 -2 -5 -13z"/>
<path d="M1800 2395 c0 -7 30 -13 34 -7 3 4 -4 9 -15 9 -10 1 -19 0 -19 -2z"/>
<path d="M2176 2392 c-3 -5 1 -9 9 -9 8 0 15 4 15 9 0 4 -4 8 -9 8 -6 0 -12
-4 -15 -8z"/>
<path d="M2175 2331 c-3 -5 -2 -12 3 -15 5 -3 9 1 9 9 0 17 -3 19 -12 6z"/>
<path d="M1820 2286 c0 -2 8 -10 18 -17 15 -13 16 -12 3 4 -13 16 -21 21 -21
13z"/>
<path d="M2160 2280 c-8 -5 -12 -12 -9 -15 4 -3 12 1 19 10 14 17 11 19 -10 5z"/>
</g>
</svg>
