<svg version="1.1" id="Layer_1" xmlns="http://www.w3.org/2000/svg" xmlns:xlink="http://www.w3.org/1999/xlink" x="0px" y="0px"
	 width="100%" viewBox="0 0 100 100" enable-background="new 0 0 100 100" xml:space="preserve">
<path fill="#020202" opacity="1.000000" stroke="none" 
	d="
M58.000000,101.000000 
	C38.666672,101.000000 19.833340,101.000000 1.000008,101.000000 
	C1.000005,67.666679 1.000005,34.333351 1.000003,1.000021 
	C34.333317,1.000014 67.666634,1.000014 100.999969,1.000007 
	C100.999977,34.333313 100.999977,67.666626 100.999985,100.999969 
	C86.833336,101.000000 72.666664,101.000000 58.000000,101.000000 
M45.053654,35.072124 
	C45.053654,32.469158 45.053654,29.866190 45.053654,27.246788 
	C36.095448,27.246788 27.692450,27.246788 19.098845,27.246788 
	C19.098845,42.615932 19.098845,57.736084 19.041599,73.724625 
	C20.028725,74.811325 20.980621,76.799332 22.008650,76.839516 
	C29.065001,77.115318 36.137547,77.018311 43.204342,76.967255 
	C46.557636,76.943039 46.834576,75.403084 45.072468,72.078392 
	C45.072468,69.474426 45.072468,66.870468 45.072468,63.769371 
	C39.121109,63.769371 33.730595,63.769371 28.394398,63.769371 
	C28.394398,59.966705 28.394398,56.685005 28.394398,52.819664 
	C33.962601,52.819664 39.356853,52.819664 44.831184,52.819664 
	C44.945129,51.258705 44.951828,50.268703 45.099102,49.300083 
	C45.860912,44.289742 43.875439,42.247627 38.752480,42.935028 
	C36.134052,43.286369 33.419876,42.855392 30.766817,43.037670 
	C28.373281,43.202122 27.858025,42.141266 29.196877,40.080551 
	C33.851620,40.048527 38.506828,40.046761 43.160946,39.974354 
	C46.537621,39.921825 46.898811,38.445599 45.053654,35.072124 
M83.177460,29.291924 
	C83.863632,28.890972 84.549812,28.490021 85.235992,28.089069 
	C83.064148,26.995934 81.460159,27.132101 79.886948,26.969858 
	C75.539505,26.521507 72.065460,27.200563 69.666557,31.633604 
	C67.910645,34.878433 65.019112,37.508736 61.888958,41.319733 
	C61.888958,35.814037 61.888958,31.549522 61.888958,27.235756 
	C58.447289,27.235756 55.375370,27.235756 52.419666,27.235756 
	C52.419666,42.672672 52.419666,57.866615 52.419666,72.951775 
	C55.786720,72.951775 58.734257,72.951775 62.204468,72.951775 
	C62.204468,67.057014 62.204468,61.385002 62.204468,55.494495 
	C62.878189,55.815105 63.069210,55.843098 63.146496,55.951889 
	C65.736015,59.597225 68.347786,63.227425 70.887871,66.907066 
	C75.750710,73.951508 77.177780,74.504570 86.135284,72.443398 
	C81.021065,64.946373 75.963501,57.532394 71.152901,49.468822 
	C76.065132,43.271797 80.977364,37.074772 86.378639,30.260790 
	C84.517212,30.116600 83.719421,30.054802 83.177460,29.291924 
z"/>
<path fill="#FBFBFB" opacity="1.000000" stroke="none" 
	d="
M70.905937,50.118416 
	C75.963501,57.532394 81.021065,64.946373 86.135284,72.443398 
	C77.177780,74.504570 75.750710,73.951508 70.887871,66.907066 
	C68.347786,63.227425 65.736015,59.597225 63.146496,55.951889 
	C63.069210,55.843098 62.878189,55.815105 62.204468,55.494495 
	C62.204468,61.385002 62.204468,67.057014 62.204468,72.951775 
	C58.734257,72.951775 55.786720,72.951775 52.419666,72.951775 
	C52.419666,57.866615 52.419666,42.672672 52.419666,27.235756 
	C55.375370,27.235756 58.447289,27.235756 61.888958,27.235756 
	C61.888958,31.549522 61.888958,35.814037 61.888958,41.319733 
	C65.019112,37.508736 67.910645,34.878433 69.666557,31.633604 
	C72.065460,27.200563 75.539505,26.521507 79.886948,26.969858 
	C81.460159,27.132101 83.064148,26.995934 85.235992,28.089069 
	C84.549812,28.490021 83.863632,28.890972 82.728882,29.742447 
	C78.378555,35.098473 74.510170,40.031071 70.558540,44.896061 
	C68.990044,46.827084 68.244789,48.544140 70.905937,50.118416 
z"/>
<path fill="#FBFBFB" opacity="1.000000" stroke="none" 
	d="
M19.098845,72.856232 
	C19.098845,57.736084 19.098845,42.615932 19.098845,27.246788 
	C27.692450,27.246788 36.095448,27.246788 45.053654,27.246788 
	C45.053654,29.866190 45.053654,32.469158 44.530586,35.467300 
	C38.794758,35.862480 33.581993,35.862480 28.039635,35.862480 
	C28.145552,37.597492 28.221973,38.849380 28.298397,40.101269 
	C27.858025,42.141266 28.373281,43.202122 30.766817,43.037670 
	C33.419876,42.855392 36.134052,43.286369 38.752480,42.935028 
	C43.875439,42.247627 45.860912,44.289742 45.099102,49.300083 
	C44.951828,50.268703 44.945129,51.258705 44.831184,52.819664 
	C39.356853,52.819664 33.962601,52.819664 28.394398,52.819664 
	C28.394398,56.685005 28.394398,59.966705 28.394398,63.769371 
	C33.730595,63.769371 39.121109,63.769371 45.072468,63.769371 
	C45.072468,66.870468 45.072468,69.474426 44.550804,72.513214 
	C35.719044,72.917442 27.408945,72.886833 19.098845,72.856232 
z"/>
<path fill="#474747" opacity="1.000000" stroke="none" 
	d="
M19.070221,73.290428 
	C27.408945,72.886833 35.719044,72.917442 44.494873,72.969269 
	C46.834576,75.403084 46.557636,76.943039 43.204342,76.967255 
	C36.137547,77.018311 29.065001,77.115318 22.008650,76.839516 
	C20.980621,76.799332 20.028725,74.811325 19.070221,73.290428 
z"/>
<path fill="#4C4C4C" opacity="1.000000" stroke="none" 
	d="
M71.029419,49.793617 
	C68.244789,48.544140 68.990044,46.827084 70.558540,44.896061 
	C74.510170,40.031071 78.378555,35.098473 82.600967,30.092987 
	C83.719421,30.054802 84.517212,30.116600 86.378639,30.260790 
	C80.977364,37.074772 76.065132,43.271797 71.029419,49.793617 
z"/>
<path fill="#474747" opacity="1.000000" stroke="none" 
	d="
M28.747637,40.090912 
	C28.221973,38.849380 28.145552,37.597492 28.039635,35.862480 
	C33.581993,35.862480 38.794758,35.862480 44.467617,35.921989 
	C46.898811,38.445599 46.537621,39.921825 43.160946,39.974354 
	C38.506828,40.046761 33.851620,40.048527 28.747637,40.090912 
z"/>
</svg>